{"glyphs":{":":{"x_min":0,"x_max":168,"ha":168,"o":"m 105 123 q 105 98 77 98 q 68 98 62 106 q 55 113 55 123 q 55 132 63 140 q 71 149 81 149 q 90 149 97 140 q 105 132 105 123 z m 115 501 q 115 476 87 476 q 78 476 72 484 q 65 491 65 500 q 65 510 73 518 q 81 527 90 527 q 100 527 107 518 q 115 510 115 501 z"},"$":{"x_min":0,"x_max":263,"ha":263,"o":"m 156 90 l 160 33 q 160 -9 143 -9 q 139 -9 136 -1 q 134 6 134 11 l 138 14 l 138 80 l 135 83 q 101 83 85 81 q 50 105 50 131 q 50 141 59 141 l 61 141 q 71 135 74 124 q 77 113 83 107 q 89 100 107 100 q 125 100 136 104 q 136 185 110 430 q 109 435 99 458 q 88 481 76 508 q 43 580 43 635 q 43 662 50 689 q 64 743 91 743 l 87 786 q 87 812 101 812 l 109 803 q 108 796 108 781 q 108 744 124 744 q 143 744 162 722 q 187 697 187 692 q 187 686 183 681 q 179 675 174 680 q 169 685 161 698 q 152 711 143 718 q 134 724 116 726 l 113 718 l 116 639 q 116 609 124 525 q 132 440 138 427 q 144 413 166 368 q 219 260 224 197 q 224 155 210 137 q 195 120 186 112 q 176 104 156 90 z m 154 117 l 155 115 q 174 125 188 146 q 202 167 202 191 q 202 215 179 283 q 156 352 137 379 q 137 335 146 248 q 154 161 154 117 z m 66 629 q 66 566 104 483 q 104 480 107 479 q 106 522 98 604 q 90 685 89 719 q 79 717 73 682 q 66 647 66 629 z"},"?":{"x_min":0,"x_max":227,"ha":227,"o":"m 53 626 q 46 664 46 684 q 46 704 49 717 q 52 731 58 743 q 72 771 109 771 q 146 771 157 749 q 179 705 179 648 q 179 591 172 547 q 164 503 154 464 q 144 424 134 379 q 111 271 116 118 q 116 119 114 118 q 109 115 104 115 q 95 115 93 127 q 93 277 112 400 q 116 425 128 473 q 153 578 153 636 q 153 688 142 719 q 132 749 117 749 l 106 749 q 71 749 71 687 q 71 673 78 626 l 66 623 q 55 622 53 626 z m 132 21 q 132 -4 104 -4 q 95 -4 89 4 q 82 11 82 21 q 82 30 90 38 q 98 47 107 47 q 117 47 124 38 q 132 30 132 21 z"},"<":{"x_min":0,"x_max":278,"ha":278,"o":"m 225 0 l 212 2 l 210 2 q 194 25 176 66 q 158 107 153 118 l 103 222 q 101 228 93 243 q 84 259 81 268 q 78 277 60 302 q 41 326 41 340 q 41 353 64 409 q 88 464 116 528 q 144 591 147 601 q 151 612 156 628 q 160 645 164 657 q 175 692 188 694 l 201 684 q 192 626 133 507 q 76 394 76 342 q 76 333 145 193 q 214 53 230 26 l 239 19 q 238 14 234 7 q 229 0 225 0 z"},"'":{"x_min":0,"x_max":311,"ha":311,"o":"m 101 616 q 103 630 103 676 l 103 684 q 103 769 114 769 q 124 769 131 758 q 137 746 137 725 q 137 704 126 659 q 114 614 105 614 q 104 614 101 616 z"},"=":{"x_min":0,"x_max":303,"ha":303,"o":"m 278 355 q 278 352 173 352 l 76 352 q 68 352 62 357 q 55 361 55 369 q 55 372 143 372 l 256 372 q 263 372 271 367 q 278 362 278 355 z m 69 316 l 266 315 q 270 315 273 310 q 276 305 276 300 q 276 295 270 295 q 270 297 77 297 q 73 297 69 302 q 65 308 65 312 q 65 316 69 316 z"},"a":{"x_min":0,"x_max":326,"ha":326,"o":"m 179 149 l 153 148 q 139 154 122 154 q 104 154 103 153 q 102 152 101 149 q 101 147 100 146 l 98 126 q 96 101 89 65 q 75 -5 60 -5 q 54 -5 47 0 q 40 6 40 12 q 53 50 66 126 q 80 202 83 221 q 87 240 96 297 q 105 354 108 372 q 111 390 124 450 q 137 510 140 529 q 143 547 146 579 q 154 657 159 666 l 173 665 q 185 665 191 671 q 197 671 203 667 q 209 663 209 656 q 209 608 221 471 q 233 333 240 293 q 248 253 257 214 q 266 175 266 155 l 261 141 q 261 119 270 75 q 278 31 278 13 q 278 -4 270 -9 q 250 -9 245 -3 q 240 3 240 16 q 240 29 239 48 q 237 66 235 78 q 233 89 229 113 q 225 137 224 144 q 205 149 179 149 z m 109 198 q 109 188 133 181 q 169 171 214 171 l 224 171 q 218 190 218 216 l 218 239 q 218 301 202 419 q 187 538 186 596 q 134 338 121 277 q 109 216 109 198 z"},"L":{"x_min":0,"x_max":232,"ha":232,"o":"m 143 0 l 112 1 q 106 1 98 -5 q 90 -11 83 -11 q 76 -11 69 -5 q 62 1 62 10 l 68 55 l 58 339 l 48 757 q 48 767 61 767 q 80 767 80 749 q 80 518 85 456 q 90 395 90 380 q 90 365 88 341 l 91 337 q 89 311 89 283 q 89 256 94 180 q 99 103 100 71 q 96 65 96 51 q 96 37 101 32 q 105 27 121 27 q 136 27 141 33 l 178 33 q 192 26 192 18 q 192 -2 178 -2 q 175 -2 163 2 q 158 0 143 0 z"},"3":{"x_min":0,"x_max":288,"ha":288,"o":"m 154 412 l 144 411 q 133 411 125 415 l 125 419 l 120 424 q 121 427 131 439 q 141 451 153 465 q 165 479 174 503 q 184 527 184 548 q 184 568 183 586 q 182 604 178 631 q 175 658 168 678 q 162 698 149 713 q 137 728 120 728 q 104 728 93 719 q 82 710 78 699 q 67 671 54 671 q 48 671 43 675 q 38 679 37 685 q 53 717 72 734 q 92 752 114 752 q 150 752 168 728 l 171 727 q 211 669 211 538 q 211 514 193 482 q 188 479 177 459 q 165 439 160 434 q 199 418 215 374 q 226 342 232 301 q 238 261 243 241 q 249 213 249 188 q 249 162 249 149 q 248 136 246 116 q 244 96 241 81 q 237 66 230 50 q 224 34 214 23 q 193 -1 165 -1 q 137 -1 116 9 q 95 19 95 36 l 103 41 q 115 40 128 30 q 142 21 146 18 q 222 18 222 145 q 222 259 207 314 q 190 374 154 412 z"},";":{"x_min":0,"x_max":191,"ha":191,"o":"m 138 501 q 138 476 110 476 q 101 476 94 484 q 88 491 88 500 q 88 510 96 518 q 104 527 113 527 q 123 527 130 518 q 138 510 138 501 z m 100 89 q 71 106 71 133 q 71 146 83 155 q 95 164 109 164 q 124 164 133 153 q 142 141 142 124 q 142 107 131 78 q 120 49 100 24 q 81 0 62 -1 l 46 7 l 48 16 q 100 60 100 89 z"},"J":{"x_min":0,"x_max":229,"ha":229,"o":"m 161 149 l 156 67 q 156 56 159 49 l 152 33 q 150 -2 125 -39 q 100 -76 71 -97 q 50 -97 50 -78 q 51 -69 67 -58 q 83 -48 86 -45 q 130 -1 130 108 q 130 160 125 256 q 120 352 118 425 q 113 668 102 727 l 49 718 q 43 718 39 722 q 35 727 35 733 q 35 758 173 758 q 180 758 184 753 q 189 749 189 742 q 189 727 143 727 l 132 727 l 131 708 q 131 682 137 629 q 143 576 143 529 q 143 482 152 349 q 161 216 161 149 z m 102 -12 q 103 -12 103 -13 z"},"V":{"x_min":0,"x_max":327,"ha":327,"o":"m 183 -9 q 180 -9 168 -5 q 150 68 116 291 q 83 514 65 619 q 48 723 36 745 q 40 756 56 756 q 72 756 77 720 q 78 715 85 678 q 92 641 121 435 q 151 229 177 118 q 182 147 185 175 q 188 203 208 379 q 245 698 245 740 l 245 744 q 260 759 270 759 l 276 755 l 274 755 l 284 747 q 284 726 277 685 q 270 644 270 623 q 260 604 231 338 q 203 71 202 13 q 194 -9 183 -9 z m 177 115 l 175 113 l 178 113 z"},"\"":{"x_min":0,"x_max":311,"ha":311,"o":"m 101 616 q 103 630 103 676 l 103 684 q 103 769 114 769 q 124 769 131 758 q 137 746 137 725 q 137 704 126 659 q 114 614 105 614 q 104 614 101 616 z m 204 710 q 204 769 224 769 q 229 769 233 758 q 237 746 237 726 q 237 706 231 659 q 225 613 221 613 q 218 613 217 614 q 204 633 204 688 z"},"7":{"x_min":0,"x_max":220,"ha":220,"o":"m 50 762 l 156 765 q 163 765 169 760 q 176 754 178 747 q 172 730 172 709 q 171 688 168 649 q 165 611 126 334 q 87 57 77 42 q 78 39 78 30 q 78 20 72 4 q 65 -13 54 -13 l 42 -2 q 42 15 50 38 q 58 62 68 104 q 78 146 90 229 q 102 312 115 430 q 127 548 131 578 q 135 607 140 638 q 150 703 150 740 q 150 746 115 746 l 56 743 l 41 753 z"},"S":{"x_min":0,"x_max":278,"ha":278,"o":"m 193 338 l 192 334 q 192 333 215 257 q 230 197 230 165 q 230 133 222 102 q 215 71 200 43 q 186 15 161 -4 q 136 -22 113 -22 q 89 -22 80 -21 q 51 -18 39 3 q 39 15 50 15 q 60 15 78 8 q 96 0 112 0 q 128 0 146 19 q 165 37 174 64 q 194 120 194 169 q 194 217 179 268 q 165 318 143 359 q 122 401 101 442 q 51 541 51 629 q 51 702 95 745 q 119 768 151 768 q 161 768 177 760 q 193 752 197 743 l 191 732 q 168 732 158 742 q 134 742 117 724 q 85 691 85 637 q 85 598 91 572 q 98 545 101 532 q 104 518 113 497 q 122 476 126 466 q 130 456 142 432 q 154 409 158 402 q 162 395 176 369 q 190 343 193 338 z"},"}":{"x_min":0,"x_max":340,"ha":340,"o":"m 120 637 l 117 532 l 113 414 q 113 371 142 368 q 146 367 146 359 q 146 352 138 350 q 113 350 113 303 l 120 92 q 120 36 103 5 q 85 -25 56 -25 q 44 -25 31 -21 q 18 -17 18 -11 q 18 0 34 0 l 54 -1 q 90 -1 90 96 l 90 219 l 87 296 q 87 320 92 335 q 97 350 113 359 q 97 367 92 382 q 87 396 87 421 l 90 524 l 90 633 q 90 730 54 730 l 39 730 q 18 730 18 740 q 18 746 31 750 q 44 754 56 754 q 85 754 103 724 q 120 693 120 637 z"},"Z":{"x_min":0,"x_max":230,"ha":230,"o":"m 172 -5 l 53 -9 q 43 -9 38 4 q 60 42 70 90 q 80 139 86 199 q 93 258 99 287 q 131 526 143 603 q 157 704 158 732 q 158 732 91 727 q 46 727 46 747 l 53 755 q 61 753 77 753 q 77 753 171 763 q 187 763 187 745 q 176 721 173 669 q 169 618 165 590 q 161 563 137 378 q 113 194 97 95 q 96 84 85 59 q 74 34 74 19 l 139 24 q 181 24 181 4 z"},"x":{"x_min":0,"x_max":253,"ha":253,"o":"m 87 22 q 87 -3 72 -3 q 53 -3 53 9 q 53 58 81 165 q 109 271 109 310 q 109 348 82 473 q 56 598 46 609 l 47 616 q 47 623 42 630 q 38 638 38 642 q 38 646 45 649 q 51 652 57 652 q 63 652 68 643 q 77 628 78 592 q 91 558 103 492 q 116 426 124 399 q 130 412 140 479 q 150 547 154 602 q 159 657 165 659 q 167 660 173 661 q 179 662 181 662 l 190 650 q 174 626 174 562 l 175 550 l 174 549 q 171 519 154 439 q 137 359 137 315 q 137 298 163 181 q 189 64 193 53 q 198 42 201 36 q 209 24 209 16 q 209 2 194 2 q 187 2 181 5 q 175 29 163 81 q 136 188 125 248 q 114 231 103 143 q 92 55 85 34 q 87 30 87 22 z m 191 314 l 191 313 z"},")":{"x_min":0,"x_max":233,"ha":233,"o":"m 189 399 q 189 285 158 156 q 91 -136 50 -136 q 44 -136 40 -133 q 35 -129 35 -125 q 35 -120 42 -106 q 50 -91 61 -71 q 103 9 133 155 q 162 300 162 399 q 162 570 117 695 q 113 706 104 723 q 82 763 82 786 l 92 794 q 112 793 132 740 q 151 687 163 617 q 189 463 189 399 z"},"&":{"x_min":0,"x_max":460,"ha":460,"o":"m 421 124 q 421 108 379 108 q 337 108 285 148 q 252 125 229 116 q 206 107 171 107 q 137 107 107 131 q 77 156 61 191 q 45 226 45 253 q 45 281 46 299 q 46 316 50 335 q 54 354 55 365 q 57 377 64 396 q 71 416 73 423 q 76 431 87 453 q 98 475 100 480 q 103 485 117 513 q 131 540 134 546 l 127 686 l 127 769 q 127 799 137 816 q 148 832 159 832 q 182 832 208 817 q 235 802 235 781 l 232 721 q 232 713 233 709 q 226 688 216 660 q 194 595 180 576 q 157 544 157 530 q 157 500 177 422 q 196 343 225 269 q 255 194 278 187 q 316 264 316 381 q 316 398 307 396 q 297 395 292 403 l 293 405 l 291 411 l 294 416 q 311 416 351 420 q 392 424 402 428 q 419 426 419 413 q 419 406 402 401 q 385 397 369 397 l 345 398 l 339 398 q 339 321 330 271 q 322 220 296 170 q 331 130 373 130 l 410 133 z m 92 176 q 120 126 179 126 q 199 126 231 138 q 264 150 265 166 q 261 173 245 189 q 213 221 188 288 q 163 354 156 390 q 149 425 146 455 q 142 485 137 501 q 103 457 85 397 q 67 338 67 294 q 67 250 73 224 q 80 199 92 176 z m 373 307 q 374 307 374 306 z m 153 642 q 151 636 151 627 q 151 617 152 603 q 154 589 154 581 q 171 597 192 658 q 213 720 213 747 q 213 807 176 807 q 169 807 159 793 q 150 778 150 771 l 151 647 z"},"_":{"x_min":0,"x_max":276,"ha":276,"o":"m 49 532 q 49 671 97 690 q 116 690 140 682 q 164 674 164 665 q 186 638 201 535 q 215 431 218 363 l 220 360 q 220 338 227 296 q 233 254 233 233 l 233 146 q 227 132 222 99 q 218 66 213 51 q 201 19 155 19 q 74 19 67 165 q 66 181 61 252 q 56 323 55 353 q 49 451 49 532 z m 71 449 q 71 319 83 226 q 83 119 110 76 q 124 56 145 41 q 177 41 191 65 q 212 103 212 161 q 212 220 202 283 q 192 347 186 425 q 180 502 178 518 q 176 533 175 550 q 173 566 171 576 q 170 586 167 603 q 164 619 159 629 q 154 640 147 650 q 133 671 106 671 q 71 671 71 491 z m 139 762 l 132 775 q 132 803 157 803 q 168 803 177 797 q 185 792 185 781 q 185 770 176 762 q 167 754 155 754 z"},"v":{"x_min":0,"x_max":349,"ha":349,"o":"m 294 681 q 305 678 305 668 q 305 659 303 645 q 300 630 296 611 q 292 592 289 582 q 287 571 272 506 q 257 440 252 405 q 247 370 240 304 q 234 239 231 218 q 228 196 219 159 q 209 123 207 112 q 205 101 204 84 q 203 67 201 52 q 199 38 195 22 q 188 -12 164 -12 l 153 -3 q 153 160 64 552 q 62 559 56 583 q 37 649 37 654 q 37 658 42 663 q 46 667 51 667 q 57 667 62 658 q 68 650 72 636 q 76 622 79 609 q 82 596 84 582 q 87 569 91 555 q 94 541 100 514 q 106 488 111 467 q 115 445 121 415 q 126 385 130 368 q 133 351 139 317 q 144 283 146 270 q 149 256 155 219 q 160 181 161 172 q 163 162 169 120 q 175 79 176 72 q 196 140 210 264 q 224 388 250 519 q 276 650 281 676 z m 175 69 l 174 67 l 175 65 z m 147 540 l 147 538 l 146 538 q 146 540 147 540 z"},"O":{"x_min":0,"x_max":340,"ha":340,"o":"m 286 302 l 277 173 l 279 169 q 271 135 271 108 q 271 82 260 53 q 250 24 228 2 q 207 -21 183 -21 q 158 -21 137 -2 q 116 16 102 45 q 88 74 78 114 q 67 154 62 192 q 56 230 52 271 q 46 340 46 390 q 46 440 50 504 q 55 568 55 586 q 56 605 56 619 q 57 633 59 653 q 61 673 64 688 q 67 703 73 718 q 80 734 89 744 q 109 767 146 767 q 183 767 207 747 q 210 742 225 723 q 239 705 246 688 q 253 671 262 605 q 286 434 286 302 z m 148 741 q 74 741 74 445 l 74 406 q 74 336 85 257 q 95 177 107 127 q 118 77 139 42 q 160 7 185 7 q 219 7 235 76 q 250 146 253 200 q 257 274 257 297 l 257 321 q 257 339 257 352 q 256 365 256 395 q 255 424 254 447 q 252 470 250 503 q 248 536 243 561 q 239 587 233 616 q 228 645 219 666 q 211 687 201 705 q 180 741 148 741 z"},"(":{"x_min":0,"x_max":225,"ha":225,"o":"m 46 429 q 46 462 58 546 q 71 629 95 711 q 119 793 143 794 l 153 786 q 152 762 137 733 q 73 611 73 429 q 73 112 149 -68 q 153 -77 169 -107 q 186 -136 190 -154 q 183 -166 176 -166 q 169 -166 165 -164 q 161 -162 157 -156 q 153 -149 151 -146 q 143 -132 143 -126 q 97 -23 72 132 q 46 288 46 429 z"},"C":{"x_min":0,"x_max":340,"ha":340,"o":"m 83 492 l 74 420 q 74 361 87 223 q 101 84 114 63 q 141 23 193 23 q 246 23 270 52 q 279 52 293 55 l 298 50 q 298 2 222 -13 q 204 -16 181 -16 q 158 -16 127 6 q 97 29 84 56 q 71 83 59 226 q 47 369 47 477 q 47 585 53 605 q 50 622 50 637 q 50 697 93 731 q 136 764 198 764 q 215 764 236 753 q 256 743 256 727 q 256 716 240 716 q 236 716 228 722 q 220 728 215 728 q 210 728 204 726 q 192 730 180 730 q 168 730 151 725 q 133 720 122 712 q 110 704 102 690 q 94 676 90 664 q 85 651 83 632 q 80 604 80 563 z m 197 720 l 195 720 z"},"W":{"x_min":0,"x_max":464,"ha":464,"o":"m 215 514 l 214 512 q 210 496 210 462 q 209 429 201 390 q 193 351 181 204 q 170 57 170 3 q 170 0 164 -7 q 158 -13 152 -13 q 145 -13 140 -7 q 134 0 132 12 q 130 25 129 34 q 128 50 127 72 q 127 94 124 117 q 121 140 115 169 q 110 197 107 216 q 104 235 89 368 q 47 721 36 739 q 43 752 55 752 q 67 752 75 734 q 82 715 86 686 q 89 656 91 628 q 93 601 94 573 q 96 545 99 507 q 103 468 122 336 q 142 204 148 151 l 150 151 q 150 198 157 260 q 165 321 167 336 q 168 352 173 375 q 177 397 178 410 q 179 423 182 484 q 186 545 188 564 q 189 583 193 605 q 196 627 196 639 l 195 657 q 195 670 209 677 q 239 677 239 659 l 234 646 q 234 535 275 380 q 317 226 317 120 l 320 118 q 323 130 325 178 q 328 227 341 328 q 354 429 356 470 q 359 512 369 599 q 380 687 380 734 l 379 753 q 379 777 405 777 q 411 777 417 772 q 424 768 424 759 q 424 751 413 742 q 414 740 414 736 q 414 729 410 714 q 403 656 390 493 q 377 331 358 215 q 338 98 338 26 l 338 11 q 338 0 334 -7 q 331 -13 320 -13 q 296 -13 284 141 q 280 187 253 318 q 226 450 218 512 z m 320 115 q 318 115 318 114 z m 163 567 l 163 565 z"},"A":{"x_min":0,"x_max":340,"ha":340,"o":"m 277 293 l 288 32 l 288 21 q 288 10 285 7 q 277 0 268 0 q 259 0 253 5 q 247 10 247 17 q 250 23 250 29 l 247 49 l 247 148 q 247 161 194 171 q 142 180 116 180 q 106 180 99 144 q 91 107 83 64 q 76 21 69 10 q 45 10 38 22 q 54 44 68 131 q 83 218 91 258 q 100 297 123 428 q 146 560 154 596 q 162 633 166 651 q 170 668 177 692 q 193 750 206 750 q 222 750 227 743 q 232 736 236 710 q 239 684 243 643 q 247 603 250 569 q 259 464 261 431 q 263 397 270 383 q 268 353 268 331 q 268 309 277 293 z m 113 208 q 155 194 214 194 q 226 194 232 196 l 237 194 q 246 194 246 203 q 246 412 207 654 q 207 657 205 665 q 203 672 203 677 q 191 642 190 633 l 193 627 q 189 624 182 593 q 174 562 160 465 q 146 368 140 340 q 134 312 127 290 q 113 240 113 214 z"},"f":{"x_min":0,"x_max":257,"ha":257,"o":"m 86 169 l 92 26 q 92 -14 68 -14 l 48 1 q 57 97 57 204 q 57 311 64 446 q 71 580 71 647 q 71 656 80 661 q 88 666 107 666 q 126 666 172 659 q 218 651 218 637 q 218 620 182 620 q 164 630 141 630 q 118 630 115 629 q 111 628 110 626 q 109 625 108 619 q 106 614 104 609 l 94 398 l 94 363 q 94 359 111 359 q 161 360 161 344 q 161 336 153 331 q 146 325 137 325 l 104 331 q 86 331 86 282 z m 54 495 l 54 494 q 54 493 53 493 q 52 493 52 494 q 52 495 53 495 z"},"Q":{"x_min":0,"x_max":355,"ha":355,"o":"m 52 447 l 51 508 q 51 770 150 770 q 185 770 219 742 q 254 713 260 679 q 287 525 287 290 q 287 155 268 98 q 261 77 225 26 q 226 19 230 7 q 234 -4 235 -9 q 237 -14 239 -34 q 241 -54 243 -68 q 245 -82 254 -94 q 264 -106 280 -106 q 315 -106 315 -119 q 315 -138 277 -138 q 273 -138 261 -132 q 249 -125 247 -125 q 228 -117 219 -94 q 209 -72 203 -35 q 197 2 194 13 l 148 13 q 74 66 56 160 q 47 210 47 280 z m 75 330 l 75 288 q 75 184 105 107 q 116 79 136 59 q 156 39 182 39 l 189 44 q 191 51 201 51 q 210 52 214 54 q 246 82 248 147 q 248 163 248 184 q 248 205 249 214 q 250 223 253 240 q 256 256 256 265 l 256 401 q 252 411 252 436 q 252 460 250 484 q 249 507 244 542 q 240 577 239 588 q 238 600 237 615 q 236 630 235 639 q 234 647 232 661 q 230 675 227 683 q 224 691 219 702 q 215 712 208 719 q 202 725 192 731 q 175 742 143 742 q 75 742 75 330 z"},"w":{"x_min":0,"x_max":414,"ha":414,"o":"m 289 -33 q 272 -33 272 11 q 270 38 261 86 q 252 135 250 150 q 249 166 241 260 q 221 497 204 514 q 194 401 194 376 q 194 351 190 309 q 186 267 175 200 q 165 134 164 125 q 163 116 161 96 q 159 77 156 60 q 153 42 149 22 q 142 -21 129 -21 q 114 -21 106 24 q 98 68 93 151 q 88 234 86 251 q 84 268 75 327 q 66 387 65 411 q 63 435 61 472 q 60 509 58 532 q 54 597 38 640 q 42 648 52 648 q 61 648 65 642 q 69 636 71 625 q 73 615 73 605 q 74 587 75 565 q 77 543 97 374 q 118 204 120 113 q 123 105 125 86 q 127 66 131 59 l 132 59 q 143 132 146 155 q 148 177 153 212 q 158 248 160 267 q 162 287 165 316 q 169 362 172 426 q 174 490 179 528 q 185 567 185 580 l 203 588 q 209 588 215 584 q 220 581 220 576 q 220 571 218 566 q 264 411 273 206 q 277 128 291 91 q 304 127 312 265 q 320 403 320 458 q 320 512 326 563 q 333 615 333 634 q 333 652 329 658 q 329 674 349 674 q 357 674 360 672 q 363 670 363 653 q 363 637 358 619 l 360 613 q 351 573 351 542 q 351 511 353 508 l 347 488 l 350 481 q 347 475 347 471 q 347 468 350 450 l 347 446 q 347 410 339 288 q 331 167 329 148 q 326 130 321 109 q 316 88 316 76 q 316 -33 289 -33 z m 291 87 l 291 86 l 292 86 q 292 87 291 87 z"},"-":{"x_min":0,"x_max":303,"ha":303,"o":"m 248 361 q 248 351 183 341 q 118 332 93 332 q 69 332 62 337 q 55 341 55 349 q 55 359 121 369 q 187 378 210 378 q 248 378 248 361 z"},"E":{"x_min":0,"x_max":243,"ha":243,"o":"m 97 30 l 157 33 q 204 33 204 17 q 196 2 174 -2 q 153 -6 133 -6 l 109 -6 q 64 -6 58 1 q 51 8 51 16 l 60 53 l 60 55 q 56 75 56 99 l 61 201 l 55 415 l 60 614 q 60 632 54 667 q 47 703 47 719 l 65 747 l 135 756 l 138 753 q 162 753 165 747 q 169 741 169 734 q 169 715 133 715 l 106 717 q 84 717 84 705 l 92 535 l 87 410 l 85 408 l 91 405 l 146 415 q 151 415 158 409 q 164 404 164 398 q 164 378 149 378 l 126 379 q 88 379 88 360 l 95 276 l 92 270 l 92 67 q 97 61 97 39 z"},"s":{"x_min":0,"x_max":239,"ha":239,"o":"m 148 637 l 127 643 q 111 643 100 631 q 88 618 82 600 q 70 563 70 543 q 70 522 71 514 q 72 505 74 493 q 77 481 78 477 q 79 472 84 456 q 88 441 89 439 l 96 421 q 106 403 122 377 q 137 350 145 336 q 153 323 163 301 q 173 278 178 260 q 190 214 190 177 q 190 140 187 118 q 184 96 176 72 q 168 49 156 31 q 129 -10 81 -10 l 76 -12 q 47 -7 44 12 l 49 20 l 85 13 q 108 13 125 31 q 141 49 149 76 q 164 127 164 170 q 164 213 152 252 q 139 290 122 322 q 104 354 86 385 q 44 462 44 536 q 44 574 58 609 q 83 673 123 673 q 134 673 148 664 q 161 656 161 645 q 161 637 148 637 z m 155 641 l 155 640 l 156 640 q 156 641 155 641 z"},">":{"x_min":0,"x_max":278,"ha":278,"o":"m 68 2 q 68 2 53 0 q 49 0 44 7 q 40 14 39 19 l 48 26 q 65 58 134 196 q 202 333 202 342 q 202 394 146 507 q 86 626 77 684 l 90 694 q 104 691 114 657 q 118 646 122 629 q 127 612 130 601 q 134 591 162 528 q 237 360 237 343 q 237 327 219 302 q 200 277 197 268 q 193 259 185 243 q 177 227 175 222 l 89 44 q 71 6 68 2 z"},"l":{"x_min":0,"x_max":243,"ha":243,"o":"m 92 23 l 186 20 l 189 20 q 194 20 199 14 q 204 9 204 3 q 204 -8 188 -10 q 162 -9 105 -9 l 107 -10 l 70 -13 q 56 -13 53 10 q 55 20 55 43 l 61 576 l 66 642 q 66 649 73 649 l 90 645 q 90 645 89 566 l 90 348 q 87 266 87 264 l 89 179 l 86 171 l 87 172 l 86 164 q 86 156 89 150 l 86 54 l 86 48 q 86 32 87 28 q 88 23 92 23 z"},"8":{"x_min":0,"x_max":256,"ha":256,"o":"m 217 51 l 214 27 q 214 24 215 22 q 199 -9 181 -24 q 164 -38 139 -38 q 114 -38 100 -24 q 86 -10 79 12 q 65 54 65 91 q 65 243 97 369 q 99 375 103 386 q 112 410 112 419 q 112 429 107 445 q 103 461 96 480 q 43 640 43 704 q 43 760 73 779 q 85 786 101 786 l 119 786 q 122 785 129 782 q 136 779 139 777 q 149 771 154 761 q 173 718 173 658 q 173 598 153 492 q 138 426 138 423 q 138 420 141 414 q 143 407 146 399 q 150 391 151 388 q 217 189 217 51 z m 100 26 q 101 10 110 -4 q 119 -19 133 -19 q 165 -19 179 3 q 193 25 193 58 q 193 153 155 292 q 152 302 147 323 q 137 369 128 385 q 108 357 98 255 q 88 153 88 82 q 88 62 101 29 z m 114 764 l 103 763 q 95 763 91 766 q 68 748 68 709 q 68 671 87 576 q 106 482 120 473 q 150 569 150 652 q 150 703 139 733 q 128 764 114 764 z"},"\\":{"x_min":0,"x_max":273,"ha":273,"o":"m 40 735 q 40 748 55 748 q 62 748 67 728 q 71 708 101 595 q 130 483 165 328 q 200 173 211 133 q 232 50 232 15 q 232 3 222 -3 q 210 -2 206 10 q 201 22 199 28 q 198 35 196 45 q 194 56 193 59 l 173 146 q 164 187 144 268 q 125 349 113 398 q 82 532 71 589 q 60 646 54 668 q 40 727 40 735 z"},"e":{"x_min":0,"x_max":240,"ha":240,"o":"m 53 8 l 54 33 l 51 37 q 58 57 58 78 l 53 210 l 60 511 l 56 631 q 56 659 85 659 q 96 659 101 653 q 104 652 130 649 q 191 642 193 624 q 193 616 174 605 q 119 623 93 624 l 88 618 q 89 604 89 575 l 85 420 q 85 392 99 392 l 133 394 q 171 394 172 376 q 172 366 167 358 q 162 350 148 350 q 135 350 129 358 l 96 363 l 92 363 l 87 358 l 87 355 q 89 329 89 276 l 87 134 q 87 34 101 23 q 109 16 133 16 l 170 18 q 199 18 199 5 q 199 -13 156 -13 l 73 -13 q 55 -13 53 8 z"},"b":{"x_min":0,"x_max":259,"ha":259,"o":"m 59 649 q 59 675 80 675 q 94 675 132 663 q 169 651 170 642 q 169 640 169 639 q 188 610 194 580 q 200 551 200 491 q 200 432 184 388 l 185 388 q 181 379 170 362 q 158 345 156 341 q 175 326 187 298 q 198 270 201 248 q 204 226 205 195 l 206 169 l 206 155 q 206 59 146 13 q 115 -11 70 -11 q 61 -11 56 -5 q 51 1 50 10 q 50 20 50 41 l 60 252 l 58 341 l 64 580 q 64 618 63 638 l 59 643 z m 84 73 l 85 28 q 122 28 148 63 q 175 98 175 136 l 175 138 q 175 146 175 155 q 175 163 175 183 q 174 204 171 220 q 169 237 163 258 q 157 278 148 292 q 128 326 92 326 q 87 251 87 194 q 87 137 90 121 q 84 110 84 73 z m 90 456 l 89 386 l 89 374 l 93 361 l 100 361 q 166 361 166 494 q 166 512 163 556 l 161 558 q 155 641 111 641 q 89 641 89 510 z"},"%":{"x_min":0,"x_max":547,"ha":547,"o":"m 213 563 l 215 517 q 215 402 168 366 q 151 353 128 353 q 44 353 44 576 l 44 580 q 44 615 56 664 q 78 758 115 758 q 166 758 184 721 q 215 668 215 566 z m 69 575 l 71 520 q 71 490 78 453 q 92 379 126 379 q 147 379 162 396 q 177 412 183 439 q 192 484 192 523 l 184 648 l 182 657 q 182 687 164 709 q 146 731 118 731 q 97 731 87 690 q 80 660 77 632 q 74 604 73 601 z m 506 234 l 504 188 l 506 185 q 506 127 492 88 q 467 13 406 13 q 387 13 372 33 q 357 54 350 82 q 335 139 335 171 l 335 175 q 335 398 419 398 q 442 398 459 385 q 477 372 485 354 q 494 336 499 311 q 506 275 506 234 z m 371 309 q 362 262 362 232 l 360 179 l 364 153 q 364 151 367 130 q 371 109 374 93 q 377 76 386 61 q 396 46 411 46 q 426 46 439 54 q 452 62 459 75 q 467 89 472 106 q 477 124 478 143 q 479 162 480 180 q 481 199 480 211 q 480 223 480 233 q 480 243 479 257 q 479 271 475 293 q 471 315 464 331 q 458 347 446 358 q 433 370 416 370 q 399 370 388 352 q 376 334 371 309 z m 359 748 q 374 748 374 735 q 374 727 364 686 q 354 646 348 617 q 342 588 241 146 l 221 59 q 220 56 218 45 q 216 35 215 28 q 213 22 210 14 q 204 -2 192 -3 q 182 3 182 20 q 182 37 187 63 q 192 90 203 134 q 214 177 249 330 q 283 483 313 595 q 342 708 344 713 q 345 719 346 724 q 348 729 350 735 q 354 748 359 748 z"},"m":{"x_min":0,"x_max":515,"ha":515,"o":"m 454 199 l 452 94 q 452 24 462 -10 q 464 -16 464 -22 q 464 -29 458 -41 q 452 -52 442 -52 q 422 -52 422 12 q 422 221 419 266 q 416 312 412 340 q 408 369 408 384 l 412 508 q 412 543 408 555 q 389 540 288 134 q 287 130 286 119 q 285 108 283 98 q 281 89 278 79 q 272 56 258 56 q 241 56 235 64 q 228 72 228 89 q 228 130 176 337 q 125 544 107 561 q 104 507 98 396 q 85 166 85 86 q 85 7 86 -6 q 82 -19 65 -19 q 62 -19 55 -14 q 48 -8 48 -5 q 48 101 63 311 q 79 521 79 626 l 73 645 q 73 660 100 660 q 115 660 120 645 q 123 632 124 619 q 125 606 127 590 q 130 574 153 523 q 176 472 181 454 q 186 436 193 409 q 209 352 215 323 l 228 297 q 231 280 239 248 q 256 180 257 140 q 269 158 320 347 q 371 536 376 561 q 380 586 382 599 q 384 612 386 619 q 388 627 392 638 q 399 658 416 658 q 422 658 432 652 q 441 646 441 640 q 441 221 454 199 z m 408 561 l 407 561 l 406 560 l 408 559 z"},"#":{"x_min":0,"x_max":386,"ha":386,"o":"m 282 329 l 301 330 q 329 330 329 311 q 329 304 313 298 l 274 298 q 272 271 259 158 q 246 46 246 -15 l 235 -28 q 217 -28 217 -18 q 217 3 223 44 q 230 86 230 112 q 230 139 240 200 q 249 262 249 294 q 222 297 183 297 q 144 297 133 293 q 128 258 120 170 q 103 -28 90 -28 q 85 -28 79 -25 q 73 -22 73 -18 q 73 21 85 128 q 98 236 110 293 l 67 289 q 37 289 37 310 q 37 320 71 320 l 92 320 q 107 320 112 321 q 115 327 122 394 q 130 460 130 474 l 96 472 q 58 472 57 490 l 65 499 q 123 499 132 502 q 134 524 141 567 q 155 658 155 711 l 154 731 q 154 753 169 753 l 176 739 q 176 700 167 623 q 158 546 158 507 q 172 503 210 503 q 249 503 267 510 q 298 659 304 745 q 311 753 319 753 q 327 753 331 743 q 331 705 313 630 q 295 555 295 515 l 297 510 l 334 510 l 347 496 q 341 480 334 480 l 292 482 q 277 422 277 331 z m 137 329 l 138 325 q 150 323 184 323 q 217 323 247 327 q 265 423 265 470 q 265 480 188 480 q 166 480 155 474 q 149 462 143 406 q 137 351 137 329 z"},",":{"x_min":0,"x_max":199,"ha":199,"o":"m 49 -79 l 51 -70 q 103 -26 103 3 q 91 10 83 22 q 74 34 74 47 q 74 61 86 69 q 98 78 112 78 q 134 78 145 49 l 143 46 q 145 42 145 30 q 145 18 133 -11 q 121 -39 101 -63 q 82 -86 65 -87 z"},"n":{"x_min":0,"x_max":421,"ha":421,"o":"m 333 609 l 331 634 q 331 655 345 655 q 355 655 361 646 q 367 636 367 626 l 367 559 l 362 551 q 362 473 351 248 q 340 24 330 3 q 328 2 316 -1 q 304 -4 299 -4 q 294 -4 290 3 q 286 9 284 20 q 282 31 280 34 l 281 37 q 274 79 255 132 q 235 186 229 204 q 226 208 202 279 q 112 558 89 580 q 81 549 81 510 l 83 431 l 81 383 q 81 372 85 313 l 82 313 q 82 146 89 129 l 89 39 q 93 32 93 21 q 93 -2 74 -2 q 53 -2 53 52 l 57 117 l 51 405 l 57 582 l 57 600 q 57 613 58 617 q 59 622 59 628 q 60 634 62 637 q 63 641 65 645 q 69 654 75 659 l 78 656 l 88 658 q 99 654 102 643 q 102 642 103 637 q 104 632 104 632 q 121 561 176 433 q 230 306 242 269 q 254 233 263 192 q 284 103 308 61 l 310 64 q 333 282 333 609 z m 312 -1 q 313 -1 313 -2 z"},"h":{"x_min":0,"x_max":296,"ha":296,"o":"m 222 665 q 222 587 229 431 q 235 276 235 181 q 235 86 241 0 l 235 -11 q 234 -1 204 -1 q 199 221 199 267 l 197 271 l 200 280 q 200 295 197 317 l 181 321 q 172 318 161 318 l 97 328 l 87 324 l 84 198 l 87 194 l 93 27 q 93 1 76 1 q 54 1 54 61 l 56 244 q 56 335 53 342 q 58 352 58 408 q 58 408 51 642 q 51 649 56 655 q 61 661 68 661 q 88 661 88 603 l 84 359 q 84 347 164 347 q 183 347 192 354 q 200 361 200 394 q 200 426 194 518 q 187 610 187 656 q 187 662 192 667 q 198 671 201 671 q 205 671 222 665 z m 172 361 l 174 359 l 172 359 z"},"z":{"x_min":0,"x_max":263,"ha":263,"o":"m 151 6 l 92 9 q 81 9 70 3 q 60 -2 56 -2 q 41 -2 41 13 q 41 30 53 72 q 82 177 93 234 q 105 291 112 318 q 119 346 141 414 q 189 566 189 636 l 95 630 q 89 630 85 635 q 81 640 81 646 q 81 662 192 662 q 217 662 217 646 q 217 612 192 536 q 168 461 168 447 q 163 419 138 336 q 75 128 74 31 q 84 29 103 29 l 145 32 q 174 32 174 19 q 174 6 151 6 z"},"B":{"x_min":0,"x_max":301,"ha":301,"o":"m 251 231 l 248 188 q 248 186 251 177 q 242 106 225 78 q 208 49 188 34 q 167 19 134 4 q 127 3 114 -1 q 102 -6 94 -6 q 55 -6 55 8 l 60 261 l 53 678 q 53 750 79 750 q 147 750 183 706 q 219 662 219 588 q 219 514 155 427 q 169 406 188 381 l 215 344 q 241 310 246 283 q 251 257 251 231 z m 93 34 l 99 33 q 130 33 171 65 q 212 96 218 120 q 223 144 223 181 q 223 360 137 396 q 127 396 111 391 q 94 386 88 385 q 93 238 93 34 z m 84 673 l 88 433 l 91 432 q 126 432 148 473 q 167 505 178 539 q 189 572 193 581 l 193 619 q 193 653 168 685 q 143 716 110 716 q 84 716 84 673 z"},"K":{"x_min":0,"x_max":337,"ha":337,"o":"m 276 -23 l 262 -19 q 243 97 203 239 q 163 381 130 444 l 127 442 q 124 430 106 399 q 88 369 86 351 q 84 333 84 281 l 89 60 q 89 -3 68 -3 q 50 -3 50 43 q 50 89 56 182 q 63 274 63 321 q 63 321 59 680 l 57 684 l 50 731 q 50 752 67 752 q 76 752 79 750 q 83 748 86 736 q 91 719 91 636 l 87 422 l 88 422 q 108 464 141 548 q 175 631 179 641 q 233 780 250 780 q 267 780 267 765 q 265 747 254 730 q 244 714 242 708 q 239 703 225 673 q 211 643 201 621 q 190 599 178 569 q 150 505 148 485 l 153 476 l 149 473 q 183 387 228 225 q 272 63 296 -4 q 294 -23 276 -23 z"},"R":{"x_min":0,"x_max":289,"ha":289,"o":"m 59 733 l 57 751 q 57 760 77 760 q 118 760 140 737 q 162 714 169 688 q 176 661 180 647 q 188 618 188 601 q 188 551 160 480 q 142 435 142 430 q 142 381 181 233 q 220 85 245 23 q 245 -10 232 -10 q 222 -10 215 -1 q 208 8 207 10 q 204 49 181 118 q 159 188 154 211 q 148 234 135 306 q 122 377 112 415 l 104 421 l 85 413 l 85 38 l 87 13 q 87 -7 69 -7 q 62 -7 57 -2 q 52 2 52 10 l 55 15 l 59 622 z m 87 728 l 82 510 q 82 467 85 446 l 87 446 q 94 446 113 466 q 132 487 139 499 q 146 511 150 540 q 155 568 155 587 q 155 605 152 626 q 149 646 144 670 q 138 694 125 710 q 112 726 95 726 l 95 729 z"},"T":{"x_min":0,"x_max":265,"ha":265,"o":"m 167 266 l 172 33 q 172 -6 155 -6 q 145 -6 139 8 q 134 22 134 34 l 142 198 q 142 251 135 358 q 128 464 128 518 l 129 612 q 129 715 112 715 l 55 709 q 48 709 41 714 q 34 718 34 726 q 34 736 101 746 q 167 755 206 755 q 213 755 220 750 q 227 745 227 738 q 227 723 208 723 q 208 723 171 726 q 154 726 150 716 q 157 653 157 586 l 156 465 q 156 347 170 295 q 167 280 167 266 z"},"P":{"x_min":0,"x_max":264,"ha":264,"o":"m 90 354 l 98 25 q 98 10 94 2 q 90 -6 77 -6 q 64 -6 64 29 l 68 208 l 60 370 q 60 481 57 553 q 55 625 54 649 q 53 673 53 686 q 50 724 44 750 q 53 764 70 764 q 105 764 134 748 q 163 731 180 704 q 215 648 215 589 q 215 531 194 470 q 167 394 126 376 q 113 371 108 365 q 100 356 90 354 z m 76 735 l 88 393 l 90 391 q 100 392 105 397 q 110 401 115 407 q 120 412 122 414 q 187 479 187 577 q 187 611 184 632 q 181 652 167 671 q 153 690 143 698 q 133 707 115 720 q 97 733 94 735 z"},"|":{"x_min":0,"x_max":251,"ha":251,"o":"m 94 1 l 91 -33 q 91 -43 78 -43 q 65 -43 64 -42 q 62 -40 62 -15 q 62 9 68 97 q 74 186 74 249 q 74 312 82 477 q 90 642 90 687 q 90 731 90 735 q 90 738 91 743 q 92 748 94 751 q 100 758 110 758 q 116 758 116 747 q 116 654 107 465 q 97 275 97 173 q 97 70 94 25 z"},"t":{"x_min":0,"x_max":266,"ha":266,"o":"m 204 627 l 150 634 l 145 628 l 147 624 q 145 620 145 567 q 145 514 162 318 q 178 123 178 25 q 178 18 172 12 q 167 6 159 6 l 148 14 l 146 87 l 148 122 q 148 136 144 146 q 144 231 132 394 q 120 556 119 634 q 41 634 35 653 q 40 664 54 664 l 190 655 l 208 656 q 226 656 226 643 q 226 636 219 632 q 211 627 204 627 z"},"M":{"x_min":0,"x_max":418,"ha":418,"o":"m 309 759 q 312 775 333 775 q 336 775 341 770 q 345 765 345 761 q 342 694 342 633 q 342 571 350 420 q 358 270 358 218 q 358 166 357 154 q 356 141 359 109 q 363 78 363 29 q 363 -19 348 -26 l 348 -23 l 344 -27 l 325 -19 l 325 -16 q 325 -10 328 -4 l 324 5 q 326 64 326 96 l 319 425 l 321 537 q 321 554 319 585 q 317 616 317 626 q 315 624 315 619 q 312 554 287 422 q 271 320 245 236 q 244 230 240 221 q 231 200 231 189 l 234 184 q 233 181 229 158 q 222 109 202 109 q 180 109 179 187 q 179 199 176 219 q 173 240 132 437 q 90 635 84 643 q 80 553 80 441 l 83 123 l 88 28 q 88 10 80 2 q 52 2 52 54 l 57 221 l 53 424 l 56 661 q 56 718 55 747 l 74 758 q 98 755 162 438 q 175 372 183 340 q 190 308 193 295 q 196 281 199 263 q 207 225 207 208 q 213 223 226 291 l 240 361 q 246 389 267 505 q 289 620 295 652 q 310 717 311 754 z m 122 493 l 123 493 z"},"g":{"x_min":0,"x_max":336,"ha":336,"o":"m 275 198 l 279 45 q 227 -7 177 -7 q 110 -7 90 21 q 69 48 57 147 q 45 247 45 289 q 45 332 50 382 q 55 433 58 479 q 61 525 68 557 q 92 662 181 662 q 212 662 212 648 q 212 641 205 637 q 199 633 192 633 l 173 635 q 139 635 120 592 q 100 544 94 503 q 89 463 87 439 q 84 415 83 384 q 82 338 82 298 q 82 258 85 234 q 93 222 95 194 q 98 167 99 139 q 101 111 107 83 q 113 56 133 39 q 153 22 188 22 q 248 22 248 182 l 248 255 q 238 265 213 265 l 194 264 q 170 264 170 276 q 170 293 194 293 q 286 293 286 273 z"},"j":{"x_min":0,"x_max":280,"ha":280,"o":"m 35 -100 l 34 -96 q 34 -92 70 -69 q 106 -45 110 -41 q 126 -23 134 14 q 142 51 142 84 q 142 84 133 615 l 127 626 q 123 628 103 631 q 54 637 54 652 q 54 656 62 660 q 71 664 87 664 q 103 664 173 650 q 242 636 242 622 q 242 609 226 609 l 172 619 q 163 619 163 599 l 173 184 l 173 74 q 167 61 167 37 q 167 12 161 -13 q 154 -38 143 -63 q 131 -89 110 -106 q 90 -123 65 -123 l 58 -123 z"},"i":{"x_min":0,"x_max":269,"ha":269,"o":"m 207 8 l 174 11 q 166 11 155 6 q 145 0 130 0 q 115 0 111 10 l 94 9 q 73 9 67 19 q 67 25 73 30 q 78 34 80 36 l 109 36 l 113 40 l 116 61 q 116 61 109 280 l 114 513 q 114 581 109 629 q 99 632 79 632 l 55 630 q 36 630 36 647 q 36 651 45 655 q 54 659 60 659 q 199 659 199 629 q 199 626 197 621 l 174 619 q 166 625 145 625 l 140 622 q 143 613 143 569 l 140 331 l 147 112 l 146 81 q 146 58 149 53 l 148 51 q 148 41 170 41 l 199 42 q 229 42 229 28 q 229 19 223 13 q 216 8 207 8 z"},"y":{"x_min":0,"x_max":274,"ha":274,"o":"m 171 216 l 172 57 q 172 -15 151 -15 q 147 -15 143 -11 q 138 -7 136 -4 q 146 21 146 171 q 146 200 142 254 q 139 309 138 325 l 132 338 l 135 350 q 122 379 88 477 q 38 616 37 638 l 51 649 q 61 647 80 585 q 100 523 118 460 q 137 398 145 396 l 149 414 l 147 419 q 154 428 166 490 q 178 552 192 608 q 206 664 218 664 q 231 664 231 653 q 231 643 220 605 q 209 567 200 536 q 191 504 186 487 q 182 470 176 444 q 164 396 164 353 q 169 341 169 336 l 163 307 z"},"@":{"x_min":0,"x_max":506,"ha":506,"o":"m 238 228 q 139 228 139 466 l 139 478 q 139 575 144 601 q 150 628 157 650 q 165 672 175 685 q 200 715 240 715 q 279 715 305 686 q 321 667 351 387 q 355 341 356 335 l 367 330 q 380 305 388 305 q 427 305 427 457 q 427 609 371 757 q 356 796 339 819 q 302 866 229 866 q 158 866 127 822 q 102 784 96 716 q 94 697 92 671 q 91 646 90 642 q 90 638 89 626 q 87 615 86 609 q 82 587 78 579 q 80 553 80 535 q 80 518 76 508 q 78 504 78 490 q 78 475 80 450 q 81 426 82 413 q 83 400 87 366 q 91 333 92 320 q 94 307 95 281 q 97 256 98 240 q 99 224 102 203 q 105 182 110 166 q 123 125 153 84 q 182 42 214 42 q 269 42 311 60 q 352 79 392 121 q 397 126 401 130 q 410 139 414 140 l 423 131 q 416 106 391 84 q 366 62 335 48 q 268 19 218 19 q 145 19 91 136 q 90 148 85 160 q 80 171 78 176 q 67 206 56 327 q 45 449 45 500 q 45 701 85 806 q 106 861 151 881 q 184 895 222 895 q 261 895 284 888 q 307 882 324 872 q 341 863 356 845 q 372 827 382 812 q 392 797 402 771 q 411 746 417 729 q 422 711 428 682 q 443 603 445 586 q 447 570 450 548 q 454 526 455 519 q 456 512 458 495 q 461 471 461 441 q 461 276 387 276 q 373 276 358 287 q 344 299 336 301 q 319 258 278 238 q 258 228 238 228 z m 181 590 q 179 567 179 534 l 179 406 q 179 337 186 316 q 193 294 200 282 q 214 257 245 257 q 262 257 279 277 q 296 296 306 321 q 316 346 316 364 l 316 439 q 316 456 315 471 q 313 486 313 494 q 312 501 311 513 q 309 524 308 530 q 307 536 305 549 q 302 562 301 566 q 297 583 293 607 q 289 632 288 638 q 287 644 284 653 q 282 663 278 668 q 275 673 270 678 q 265 684 257 686 q 250 688 239 688 q 228 688 218 682 q 208 676 202 667 q 196 659 191 645 q 187 631 185 619 q 182 606 181 590 z"},".":{"x_min":0,"x_max":160,"ha":160,"o":"m 105 21 q 105 -4 77 -4 q 68 -4 62 4 q 55 11 55 21 q 55 30 63 38 q 71 47 81 47 q 90 47 97 38 q 105 30 105 21 z"},"p":{"x_min":0,"x_max":255,"ha":255,"o":"m 88 193 l 96 -2 q 96 -20 77 -20 l 63 -12 q 52 48 52 132 l 56 318 q 50 333 50 341 q 60 358 60 433 q 60 611 54 627 q 64 652 69 652 l 113 652 q 125 652 145 641 q 166 630 178 619 q 203 596 203 501 q 203 417 196 399 q 188 381 180 367 q 172 354 159 345 q 131 325 88 312 z m 87 594 l 92 450 l 88 356 l 94 346 q 167 346 171 500 q 171 511 171 527 q 171 543 170 554 q 169 565 165 579 q 162 593 155 601 q 140 621 109 621 q 96 621 91 615 q 87 608 87 594 z"},"X":{"x_min":0,"x_max":276,"ha":276,"o":"m 210 13 q 192 13 192 26 q 192 39 190 54 q 188 70 187 81 q 185 92 182 110 q 160 235 141 307 q 137 300 111 182 q 86 64 83 46 q 80 28 79 23 q 76 0 68 -3 q 62 -6 56 -6 q 51 -6 46 -2 q 40 2 40 7 q 40 12 44 26 q 48 41 55 60 q 71 109 88 195 q 106 282 110 299 q 113 317 115 326 q 117 335 120 350 q 124 376 124 406 q 124 436 118 472 q 112 508 100 559 q 88 610 85 625 q 82 639 71 675 q 60 710 59 730 q 67 743 75 743 q 84 743 89 738 q 93 733 94 728 q 95 723 95 713 q 96 704 99 687 q 102 669 118 598 q 135 528 141 490 q 160 541 167 581 q 181 660 183 668 q 185 676 186 689 q 188 701 189 711 q 191 721 194 733 q 201 758 214 758 q 232 758 232 748 q 232 739 226 724 q 220 709 213 685 q 206 661 192 587 q 177 514 173 494 q 169 474 168 464 q 166 455 163 438 q 158 408 158 386 l 211 116 l 209 111 q 209 97 218 70 q 226 44 226 34 q 226 24 221 19 q 216 13 210 13 z m 140 310 l 138 310 q 138 309 140 309 z"},"*":{"x_min":0,"x_max":442,"ha":442,"o":"m 262 547 q 235 547 231 544 q 231 531 270 455 q 308 379 308 371 q 308 362 304 358 q 299 354 292 354 q 284 354 278 363 q 273 371 270 387 q 267 404 266 406 q 239 470 212 520 q 208 514 200 494 l 161 402 q 159 397 155 386 q 147 363 140 351 l 127 349 l 113 364 q 113 375 150 449 q 188 523 192 546 q 186 548 181 548 l 68 548 l 52 547 q 41 547 41 563 q 41 568 44 572 q 47 575 52 575 l 187 574 l 189 576 q 178 596 147 662 q 116 728 116 734 q 116 745 132 745 q 139 745 153 710 q 167 675 183 637 q 199 598 209 592 q 213 600 228 643 q 264 754 281 754 q 286 754 292 749 q 297 744 297 738 q 297 732 284 712 q 272 688 257 642 q 242 595 233 575 q 238 570 294 570 l 380 575 q 387 575 393 569 q 399 563 399 556 q 399 542 376 542 z m 230 547 q 229 547 229 546 l 230 546 z"},"Y":{"x_min":0,"x_max":247,"ha":247,"o":"m 141 -12 q 127 -12 127 12 l 132 205 q 132 205 125 286 q 125 302 119 333 q 113 364 113 375 q 113 387 110 401 q 107 416 103 436 q 98 456 95 467 q 93 478 84 526 q 64 628 50 675 q 36 722 36 734 q 36 755 56 755 l 68 747 q 70 707 94 589 q 118 472 131 454 q 146 500 152 569 q 158 638 162 674 q 171 752 190 752 q 205 752 205 741 q 205 733 201 719 q 197 706 196 695 q 194 684 184 631 q 175 578 170 551 q 157 471 157 405 l 160 372 l 154 357 l 154 349 l 161 229 q 161 94 159 27 l 162 24 l 163 17 q 163 6 157 -3 q 152 -12 141 -12 z"},"c":{"x_min":0,"x_max":269,"ha":269,"o":"m 85 404 l 81 202 q 81 118 97 81 q 116 38 145 25 q 163 17 182 17 q 202 17 212 26 q 227 26 227 15 q 227 7 214 -2 q 200 -12 189 -16 l 156 -16 q 149 -13 132 -7 q 115 -2 101 9 q 86 19 74 43 q 61 67 56 100 q 47 152 47 218 l 47 332 q 47 465 57 515 q 76 615 110 641 q 119 648 137 655 q 155 662 162 666 l 202 666 q 203 666 205 666 q 207 665 208 665 q 208 665 210 664 q 212 664 213 663 q 213 663 215 662 q 216 662 217 661 q 221 657 221 651 l 208 636 l 166 636 q 146 636 130 617 q 115 598 107 571 q 99 545 94 510 q 87 458 87 409 z"},"!":{"x_min":0,"x_max":161,"ha":161,"o":"m 43 19 q 43 29 53 39 q 63 50 76 50 q 88 50 95 39 q 103 29 103 13 q 103 -12 78 -13 q 77 -9 72 -8 q 55 -5 43 19 z m 72 157 l 71 161 l 71 401 q 71 401 73 572 l 66 729 q 66 739 76 748 q 87 756 98 756 q 110 756 110 743 q 110 663 99 504 q 89 345 89 265 l 90 221 q 90 181 82 162 l 85 157 z"},"/":{"x_min":0,"x_max":273,"ha":273,"o":"m 234 735 q 234 727 224 686 q 214 646 208 617 q 202 588 101 146 l 81 59 q 80 56 78 45 q 76 35 74 28 q 73 22 70 14 q 64 -2 52 -3 q 42 3 42 20 q 42 37 47 64 q 52 91 63 133 q 74 175 109 329 q 144 483 173 595 q 203 708 204 713 q 205 719 207 724 q 208 729 210 735 q 215 748 219 748 q 234 748 234 735 z"},"[":{"x_min":0,"x_max":251,"ha":251,"o":"m 199 727 l 143 733 q 113 733 113 712 q 113 568 100 382 q 88 197 84 120 q 80 43 74 25 l 74 1 l 70 -7 q 73 -7 103 -9 q 173 -12 173 -33 q 173 -43 151 -43 q 128 -43 86 -36 q 43 -30 43 -17 q 43 24 53 106 q 64 188 64 250 q 64 312 77 477 q 90 641 90 723 q 90 728 85 735 q 81 742 80 746 l 100 758 q 215 758 215 738 q 215 733 210 730 q 205 727 199 727 z"},"6":{"x_min":0,"x_max":252,"ha":252,"o":"m 69 105 q 65 169 64 180 q 49 290 49 394 q 49 489 52 529 q 56 568 60 604 q 64 641 72 667 q 79 692 89 717 q 109 766 145 766 q 148 766 153 763 q 157 760 157 755 q 157 750 151 746 q 145 741 135 737 q 126 733 123 731 q 107 718 95 652 q 78 556 75 438 q 87 446 100 446 q 114 446 128 438 q 142 430 152 415 q 163 400 171 383 q 180 365 186 341 q 192 316 196 295 q 201 273 203 245 q 206 217 208 197 q 209 177 210 151 q 210 125 211 113 q 211 100 211 83 q 211 66 210 54 q 208 42 204 28 q 200 15 193 6 q 186 -3 173 -9 q 160 -14 141 -14 q 123 -14 108 -3 q 94 8 87 24 q 80 40 75 63 q 71 86 69 105 z m 75 370 q 74 229 100 81 q 101 77 102 67 q 103 57 104 52 q 105 46 107 38 q 109 30 112 25 q 115 21 120 16 q 129 6 150 6 q 187 6 187 85 q 187 199 178 256 q 169 313 161 348 q 153 383 138 403 q 124 424 105 424 q 75 404 75 370 z"},"r":{"x_min":0,"x_max":269,"ha":269,"o":"m 50 629 q 50 667 72 667 q 121 667 152 642 q 184 618 184 570 l 184 497 q 184 458 145 387 q 132 363 132 361 q 132 358 170 202 q 208 46 209 42 q 211 37 219 21 q 227 5 227 -6 q 227 -17 216 -17 l 201 -12 q 178 14 150 183 q 123 346 104 346 l 100 346 q 78 346 78 332 q 78 277 84 150 q 91 23 95 8 l 88 -9 l 73 -9 l 66 -1 q 50 432 50 629 z m 78 615 l 82 373 l 84 371 q 103 371 118 391 q 133 411 141 439 q 157 498 157 528 q 157 558 155 573 q 153 589 147 606 q 134 641 90 641 q 84 641 81 632 q 78 623 78 615 z"},"2":{"x_min":0,"x_max":279,"ha":279,"o":"m 209 1 l 63 -8 q 53 -8 46 -2 q 38 3 38 12 q 55 34 72 80 q 88 127 92 134 q 149 259 177 372 q 206 485 206 610 q 206 754 144 754 q 130 748 122 733 q 114 718 112 704 q 108 667 95 667 q 82 667 82 685 q 82 703 87 722 q 93 742 105 758 q 118 774 135 774 q 177 774 203 742 q 229 710 230 667 l 228 665 l 231 592 q 231 510 208 393 q 186 275 155 205 q 152 199 129 152 q 76 42 75 20 l 83 19 q 118 25 203 30 l 218 14 z"},"{":{"x_min":0,"x_max":340,"ha":340,"o":"m 44 92 l 47 197 l 51 315 q 51 358 22 361 q 18 362 18 370 q 18 377 26 379 q 51 379 51 426 l 44 637 q 44 693 62 724 q 79 754 108 754 q 119 754 132 749 q 146 743 146 737 q 146 726 130 726 l 110 730 q 74 730 74 633 l 74 510 l 77 433 q 77 409 72 394 q 67 379 51 370 q 67 362 72 347 q 77 332 77 308 l 74 205 l 74 96 q 74 -1 110 -1 q 139 -1 142 -5 q 146 -9 146 -14 q 146 -25 113 -25 q 79 -25 62 5 q 44 36 44 92 z"},"9":{"x_min":0,"x_max":249,"ha":249,"o":"m 180 28 l 181 5 q 181 -23 164 -23 l 156 -13 q 165 13 165 76 l 170 355 q 170 373 169 409 q 168 445 168 463 l 161 461 q 107 473 74 513 q 41 553 41 607 q 41 684 65 736 q 74 755 90 769 q 105 782 124 782 q 142 782 163 775 q 184 767 191 756 q 198 745 198 597 l 197 479 l 190 439 l 187 102 z m 75 572 q 78 536 90 525 q 102 515 109 510 q 116 506 130 500 q 145 493 155 487 l 169 489 q 174 577 174 703 q 174 731 164 747 q 153 763 131 763 q 109 763 96 746 q 83 729 77 703 q 67 653 67 617 q 67 580 75 572 z"}," ":{"x_min":0,"x_max":142,"ha":142,"o":""},"I":{"x_min":0,"x_max":233,"ha":233,"o":"m 176 4 l 144 9 q 133 9 121 -3 q 99 -3 93 5 l 90 5 q 44 5 37 22 q 37 33 60 33 l 82 32 q 102 32 103 61 q 103 90 100 131 q 97 173 96 214 q 95 255 90 374 q 85 492 84 544 l 85 661 q 85 709 82 719 l 48 712 q 37 712 37 726 q 37 740 81 749 q 125 758 141 758 q 167 758 167 741 q 167 725 155 725 l 131 726 q 114 726 110 710 q 107 697 107 632 q 107 568 119 377 q 132 186 132 90 l 131 38 l 167 41 q 193 41 193 16 z"},"H":{"x_min":0,"x_max":294,"ha":294,"o":"m 200 403 l 191 742 q 191 746 193 756 q 212 756 217 729 q 221 707 221 602 q 221 497 229 278 q 236 60 236 24 q 240 15 240 9 q 240 3 235 -7 q 229 -16 222 -16 q 208 -16 208 6 l 209 29 q 209 183 199 372 l 193 371 l 155 376 q 105 376 84 364 q 84 306 93 191 q 101 76 101 18 q 101 3 91 3 q 78 3 74 14 q 71 26 69 83 q 67 141 66 207 q 65 273 64 292 q 46 536 46 748 l 62 756 l 75 745 q 71 708 71 671 l 79 468 l 78 428 q 78 408 82 393 l 199 401 z"},"4":{"x_min":0,"x_max":257,"ha":257,"o":"m 222 277 q 222 262 194 265 q 184 266 175 261 q 166 256 166 236 q 166 216 169 149 q 171 82 175 74 q 174 70 174 55 q 174 41 178 33 l 175 21 l 178 14 l 178 0 l 162 -12 l 147 -6 l 147 30 l 146 32 q 150 48 150 68 l 143 170 l 145 215 q 145 254 135 259 l 76 253 q 63 253 57 258 q 51 262 49 264 l 49 267 q 49 272 54 299 l 45 319 l 54 368 l 64 564 l 64 723 l 60 748 q 60 761 75 761 q 90 761 90 747 l 86 667 q 86 649 89 633 l 87 630 q 89 612 89 602 l 77 350 l 84 321 l 77 294 q 77 275 87 275 q 96 275 114 278 q 131 281 137 284 q 137 320 133 416 q 129 512 126 539 q 122 566 122 576 q 122 592 141 592 l 150 581 l 156 440 q 156 411 159 350 q 162 289 166 284 l 203 288 q 222 288 222 277 z"},"~":{"x_min":0,"x_max":319,"ha":319,"o":"m 238 561 l 232 580 q 235 586 244 586 q 254 586 260 575 q 265 564 265 548 q 265 531 249 515 q 233 499 213 499 q 194 499 176 510 q 158 520 148 530 q 139 539 123 558 l 116 561 l 98 561 q 97 555 88 549 q 79 542 79 536 q 79 530 84 513 l 73 498 q 67 498 61 503 q 54 509 54 515 q 54 546 70 566 q 85 586 115 586 q 147 569 155 564 q 162 549 174 537 q 187 525 196 525 q 205 525 208 526 l 215 524 q 217 531 225 535 q 238 543 238 561 z"},"D":{"x_min":0,"x_max":343,"ha":343,"o":"m 76 146 l 77 186 q 77 245 70 322 q 63 400 62 419 q 58 428 57 544 q 57 660 55 673 q 53 686 47 703 q 40 721 40 731 q 40 755 115 755 l 120 755 q 158 755 202 713 q 246 671 260 637 q 273 604 277 556 q 282 509 283 470 q 285 431 290 421 l 288 394 l 291 389 l 288 381 l 291 376 q 285 367 285 348 q 285 330 283 314 q 281 298 279 290 q 277 281 273 263 q 268 246 259 208 q 231 101 168 49 q 104 -2 93 -2 q 82 -2 70 3 q 58 8 56 18 q 70 36 72 58 z m 79 708 l 88 542 q 88 478 95 351 q 103 224 103 179 q 103 135 101 81 l 103 77 l 103 49 l 108 49 q 146 69 174 106 q 203 144 219 184 q 235 225 245 273 q 261 353 261 427 q 261 719 100 719 q 80 719 79 708 z"},"^":{"x_min":0,"x_max":156,"ha":156,"o":"m 57 769 q 57 797 76 797 q 87 797 94 790 q 101 784 101 773 q 101 751 81 751 q 57 751 57 769 z"},"0":{"x_min":0,"x_max":296,"ha":296,"o":"m 49 506 l 50 666 q 56 676 61 699 q 66 723 71 733 q 83 753 121 753 q 131 753 148 743 q 166 733 176 724 q 185 715 192 702 q 198 690 203 681 q 207 672 210 656 q 213 639 215 631 q 218 608 220 592 q 222 575 226 545 q 229 516 230 510 q 231 504 235 478 q 238 451 239 443 q 240 434 242 410 q 245 387 246 375 q 247 363 249 343 q 250 322 251 308 q 253 274 253 247 q 253 219 252 199 q 251 180 248 149 q 246 118 239 93 q 232 67 223 44 q 201 -7 157 -7 q 148 -7 125 6 q 78 35 52 378 l 56 382 l 55 453 q 49 461 49 506 z m 76 462 l 86 374 q 86 16 166 16 q 194 16 209 69 q 223 121 225 163 q 229 230 229 275 q 229 319 221 402 q 213 485 198 523 l 198 566 q 188 593 187 623 q 186 652 182 669 q 178 686 171 698 q 156 725 106 731 q 83 712 77 697 q 72 683 72 649 z"},"F":{"x_min":0,"x_max":214,"ha":214,"o":"m 137 723 l 113 724 q 76 724 76 701 q 76 652 83 557 q 91 461 91 412 q 103 412 125 418 q 146 424 156 424 q 165 424 169 417 q 174 410 174 404 q 174 392 153 389 q 132 386 112 384 q 91 382 91 372 q 91 315 100 203 q 110 91 110 35 l 107 30 q 110 22 110 15 q 110 -2 88 -2 q 71 -2 71 66 l 72 98 q 72 149 65 249 q 59 350 59 400 q 59 690 40 714 l 40 720 q 40 756 139 756 q 156 756 156 733 q 156 723 137 723 z"},"`":{"x_min":0,"x_max":269,"ha":269,"o":"m 101 792 q 91 790 85 790 q 51 790 51 810 q 51 828 57 832 q 93 832 102 821 q 103 820 114 817 q 125 813 133 810 q 141 807 154 802 q 167 797 176 792 q 186 788 195 783 q 214 772 214 764 q 214 761 210 758 q 206 756 203 756 q 200 756 153 773 q 105 790 101 792 z"},"k":{"x_min":0,"x_max":331,"ha":331,"o":"m 167 454 l 165 390 q 165 345 199 224 q 241 78 270 39 q 289 13 289 2 q 289 -18 272 -18 q 249 -18 216 72 q 183 162 160 258 q 138 354 136 388 l 134 392 q 130 385 118 360 q 105 334 101 324 q 86 289 86 253 l 81 181 l 81 53 l 88 -4 q 88 -9 83 -13 q 78 -16 68 -16 q 59 -16 54 -12 q 50 -8 50 5 l 50 193 l 59 319 l 69 512 l 69 651 q 74 662 85 662 q 95 662 101 656 q 107 650 107 643 q 98 627 98 594 q 98 561 96 490 q 94 419 94 384 q 104 388 172 522 q 240 656 247 656 q 272 656 274 639 q 211 547 167 454 z"},"u":{"x_min":0,"x_max":318,"ha":318,"o":"m 254 449 l 255 429 q 253 404 252 361 q 251 318 251 279 q 250 241 248 196 q 246 151 240 115 q 227 30 196 2 q 163 -29 118 -4 q 99 6 86 22 q 73 39 65 126 q 58 214 56 311 q 52 603 47 644 l 53 658 q 76 655 76 603 l 79 338 l 90 126 q 90 12 165 12 q 211 12 224 222 q 225 236 228 357 q 232 478 232 649 l 230 667 q 230 678 244 678 q 259 678 261 672 q 264 665 264 613 q 264 560 258 535 q 259 533 259 529 q 259 529 254 449 z"},"]":{"x_min":0,"x_max":252,"ha":252,"o":"m 123 732 l 67 728 q 38 728 38 738 q 38 750 64 753 q 90 756 104 757 q 129 758 153 758 l 173 746 q 172 742 167 735 q 163 728 163 723 q 163 644 177 486 q 190 328 190 266 q 190 205 200 116 q 210 27 210 -17 q 210 -30 167 -36 q 125 -43 102 -43 q 80 -43 80 -33 q 80 -12 150 -9 q 180 -7 183 -7 l 179 1 l 179 25 q 171 42 160 263 q 149 485 147 545 q 146 605 143 647 q 140 689 140 706 q 140 723 137 727 q 133 732 123 732 z"},"U":{"x_min":0,"x_max":363,"ha":363,"o":"m 306 208 l 307 145 q 307 61 285 21 q 276 4 258 -8 q 241 -19 213 -19 q 185 -19 162 -4 q 138 11 125 33 q 113 56 103 85 q 94 115 90 142 q 79 211 68 231 q 68 311 58 469 q 48 627 48 707 l 41 728 q 41 735 46 741 q 51 748 58 748 q 83 748 83 675 l 92 337 q 96 332 97 313 q 102 244 106 224 q 104 212 104 199 q 104 185 114 153 q 123 121 138 89 q 154 58 177 36 q 200 13 218 13 q 236 13 245 17 q 253 21 258 26 q 263 30 266 41 q 270 52 271 57 q 271 63 272 77 q 273 92 273 95 q 273 98 273 104 l 276 137 l 276 251 l 269 311 l 263 490 l 263 503 l 259 509 q 263 537 263 566 l 254 736 q 254 744 261 748 q 268 752 276 752 l 293 736 l 290 728 l 293 720 l 286 660 l 296 480 l 301 306 l 304 305 q 303 298 303 284 l 306 214 l 309 211 z"},"o":{"x_min":0,"x_max":329,"ha":329,"o":"m 273 386 l 275 267 q 275 42 203 -7 q 185 -19 163 -19 q 46 -19 46 349 q 46 491 65 596 q 80 672 110 672 q 117 672 123 667 q 129 661 139 657 q 150 654 168 650 q 187 647 194 646 q 214 642 233 607 q 275 536 275 391 z m 77 350 l 79 271 q 79 176 101 90 q 108 58 124 34 q 139 10 159 10 q 179 10 194 24 q 208 39 217 65 q 226 91 232 118 q 238 146 240 179 q 244 233 244 275 l 233 511 l 229 519 l 231 524 q 231 567 207 600 q 182 632 147 632 l 105 632 q 97 632 90 543 q 84 454 82 444 z"},"N":{"x_min":0,"x_max":377,"ha":377,"o":"m 303 54 l 306 18 q 306 -11 281 -11 q 263 -11 257 26 q 253 44 253 46 q 155 354 130 496 q 129 500 128 510 q 127 530 119 538 l 121 543 q 115 580 112 594 q 108 609 104 627 q 98 659 87 684 q 84 664 84 653 q 84 642 86 636 q 79 613 79 567 l 79 293 q 79 245 86 150 q 93 56 93 8 l 86 0 l 63 0 l 60 8 q 62 16 62 48 l 51 396 l 51 527 l 58 716 l 57 737 q 57 750 64 754 q 70 758 81 758 q 91 758 99 752 q 107 746 107 732 q 107 719 111 704 q 116 688 124 669 q 132 649 137 634 q 142 618 146 583 q 149 548 155 521 q 160 494 172 449 q 185 403 200 348 q 216 293 221 276 q 225 258 232 231 q 248 176 249 153 q 256 143 260 113 q 263 84 276 73 q 282 87 282 121 l 286 469 l 283 624 l 286 662 q 286 673 283 675 l 286 683 q 286 745 282 765 q 286 779 307 779 q 323 779 323 746 q 317 733 317 713 l 318 679 q 318 658 314 649 l 311 333 q 311 324 313 306 l 311 302 l 311 176 l 313 138 q 313 79 303 56 z"},"+":{"x_min":0,"x_max":355,"ha":355,"o":"m 196 190 q 196 174 175 174 q 169 174 161 178 q 154 183 154 188 l 154 219 l 156 271 q 156 300 142 303 q 135 304 122 304 l 78 299 q 49 299 49 320 q 49 334 60 334 l 113 331 q 154 331 154 339 l 149 439 q 149 451 153 456 q 157 461 169 461 q 187 461 187 444 l 183 434 l 187 355 q 187 341 194 336 q 200 331 215 331 l 275 334 q 306 334 306 317 q 306 300 289 300 l 228 303 q 196 303 193 298 q 187 287 187 270 q 187 252 191 228 q 196 203 196 190 z"},"G":{"x_min":0,"x_max":378,"ha":378,"o":"m 279 226 q 310 226 310 184 q 310 154 320 95 q 330 36 330 6 q 330 -10 317 -10 q 293 -10 293 12 q 293 13 293 15 q 294 17 294 17 q 284 14 269 3 q 253 -8 245 -11 q 237 -13 221 -14 q 206 -15 198 -20 l 200 -20 q 134 -5 102 26 q 75 51 64 110 q 46 209 46 428 q 46 514 51 550 q 56 586 61 614 q 67 642 75 662 q 83 682 95 703 q 107 724 123 737 q 157 767 205 767 q 235 767 235 750 q 235 738 220 738 l 192 743 q 115 743 93 603 q 80 527 80 404 q 77 325 77 294 q 77 264 78 247 q 78 230 80 205 q 82 179 86 159 q 90 139 96 115 q 102 92 112 74 q 122 57 135 42 q 162 12 211 12 q 261 12 293 62 q 293 137 284 164 q 275 191 267 191 l 227 187 q 204 187 204 204 q 204 213 234 220 q 263 226 279 226 z"},"q":{"x_min":0,"x_max":336,"ha":336,"o":"m 254 -212 q 202 -212 188 -196 q 188 -151 177 -97 q 167 -43 165 -33 q 113 -23 90 4 q 63 34 55 128 q 46 223 46 345 q 46 662 145 668 q 152 665 167 661 q 181 658 195 651 q 209 645 226 628 q 243 611 252 588 q 262 565 269 543 q 275 521 278 493 q 282 451 282 399 l 282 352 q 282 278 271 186 q 249 4 212 -19 q 210 -20 205 -22 q 193 -28 193 -34 q 193 -72 204 -120 q 215 -168 217 -178 q 224 -186 239 -185 q 267 -184 267 -198 q 267 -212 254 -212 z m 72 343 l 75 324 l 75 281 q 75 -7 153 -7 l 182 -1 q 202 -1 219 56 q 236 112 244 169 q 252 226 252 251 l 252 426 q 252 642 142 642 q 110 642 95 575 q 72 474 72 343 z"},"d":{"x_min":0,"x_max":319,"ha":319,"o":"m 262 350 q 262 311 267 302 q 261 269 256 213 q 250 158 243 128 q 236 99 226 78 q 199 28 138 -5 l 69 -5 q 60 -5 60 22 q 56 100 56 196 l 58 432 q 58 536 54 620 q 46 627 46 637 q 46 647 54 655 q 62 662 69 662 q 76 662 85 654 q 93 646 98 644 q 102 642 119 639 q 135 636 146 631 q 157 625 182 602 q 207 578 216 572 l 215 570 q 216 563 230 544 q 244 525 247 516 q 263 473 263 397 z m 233 289 l 232 325 l 227 426 q 225 482 192 546 q 177 576 152 596 q 127 616 98 616 q 87 616 87 416 q 87 216 98 58 l 97 39 l 101 37 l 104 24 l 135 24 q 141 32 150 39 q 159 46 162 49 q 233 113 233 289 z"},"1":{"x_min":0,"x_max":296,"ha":296,"o":"m 235 7 l 112 3 q 105 3 101 7 q 96 12 96 18 l 101 28 l 128 27 q 142 27 147 33 q 153 40 153 54 q 153 180 146 284 q 139 401 124 627 l 125 661 q 125 690 116 707 q 106 724 79 724 l 56 722 q 39 722 39 733 q 39 747 127 747 q 134 747 138 742 q 143 737 143 731 l 145 731 q 142 716 142 693 q 142 669 150 606 q 157 543 157 499 q 157 455 166 344 q 174 232 174 201 q 174 171 172 163 q 178 138 178 50 l 177 35 l 181 32 l 226 35 q 257 35 257 21 q 257 7 235 7 z"},"5":{"x_min":0,"x_max":278,"ha":278,"o":"m 74 754 q 74 726 94 491 l 93 490 q 93 490 110 488 q 167 481 183 469 q 199 458 213 402 q 237 310 237 214 q 237 141 232 116 q 228 92 222 72 q 217 52 209 39 q 190 6 161 -10 l 156 -10 q 104 -10 104 6 q 104 17 123 17 l 149 9 q 164 9 177 27 q 190 46 197 72 q 212 128 212 159 q 212 191 210 231 q 208 271 201 329 q 194 388 178 426 q 163 465 139 465 l 116 465 l 112 462 l 109 463 l 87 454 q 68 454 64 470 q 63 475 63 486 q 62 497 62 501 q 67 529 67 559 q 67 589 55 660 q 44 730 43 764 l 53 774 l 130 775 q 160 775 160 761 l 149 752 l 128 752 l 125 750 l 85 755 l 78 753 z m 74 653 q 73 653 73 652 z"}}}
